# xmcd
#
# Track frame offsets: 
#        150
#        10985
#        22388
#        34741
#        46421
#        60729
#        73905
#        84753
#        97059
#        110817
#        124118
#        135187
#        146288
#        157948
#        169472
#        181763
#        194000
#        203903
#        216924
#        228691
#        239719
#        251482
#        263920
#        275571
#        287790
#
# Disc length: 3994 seconds
#
# Revision: 0
# Processed by: cddbd v1.5.2PL0 Copyright (c) Steve Scherf et al.
# Submitted via: ExactAudioCopy v0.99pb4
#
DISCID=820f9819
DTITLE=Hank Williams - Hank Williams Collected [CD2)
DYEAR=2007
DGENRE=Country
TTITLE0=Moanin' The Blues
TTITLE1=Nobody's Lonesome For Me
TTITLE2=Cold, Cold Heart
TTITLE3=Dear John
TTITLE4=Men With Broken Hearts
TTITLE5=Hey Good Lookin'
TTITLE6=I Can't Help It (If I'm Still In Love With You)
TTITLE7=Howlin' At The Moon
TTITLE8=Ramblin' Man
TTITLE9=I've Been Down That Road Before
TTITLE10=(I Heard That) Lonesome Whistle
TTITLE11=Crazy Heart
TTITLE12=Weary Blues From Waitin'
TTITLE13=Baby We're Really In Love
TTITLE14=Half As Much
TTITLE15=I'm Sorry For You My Friend
TTITLE16=Honky Tonk Blues
TTITLE17=Jambalaya (On The Bayou)
TTITLE18=Settin' The Woods On Fire
TTITLE19=I'll Never Get Out Of This World Alive
TTITLE20=You Win Again
TTITLE21=I Won't Be Home No More
TTITLE22=Kaw-Liga
TTITLE23=Your Cheatin' Heart
TTITLE24=Take These Chains From My Heart
EXTD=
EXTT0=
EXTT1=
EXTT2=
EXTT3=
EXTT4=
EXTT5=
EXTT6=
EXTT7=
EXTT8=
EXTT9=
EXTT10=
EXTT11=
EXTT12=
EXTT13=
EXTT14=
EXTT15=
EXTT16=
EXTT17=
EXTT18=
EXTT19=
EXTT20=
EXTT21=
EXTT22=
EXTT23=
EXTT24=
PLAYORDER=
